<svg width="32" height="36" viewBox="0 0 32 36" fill="none" xmlns="http://www.w3.org/2000/svg">
<path d="M23.2714 19.5215C24.4709 19.5215 25.5265 18.8085 26.0703 17.7302L31.7962 6.44329C32.388 5.29546 31.6203 3.86937 30.4047 3.86937H6.7335L5.23006 0.391113H0V3.86937H3.19881L8.95667 17.0694L6.79748 21.3129C5.62991 23.6433 7.16534 26.4781 9.59644 26.4781H28.7893V22.9998H9.59644L11.3558 19.5215H23.2714ZM8.25293 7.34763H27.6857L23.2714 16.0433H12.0435L8.25293 7.34763ZM9.59644 28.2172C7.83709 28.2172 6.41362 29.7824 6.41362 31.6955C6.41362 33.6085 7.83709 35.1737 9.59644 35.1737C11.3558 35.1737 12.7952 33.6085 12.7952 31.6955C12.7952 29.7824 11.3558 28.2172 9.59644 28.2172ZM25.5905 28.2172C23.8312 28.2172 22.4077 29.7824 22.4077 31.6955C22.4077 33.6085 23.8312 35.1737 25.5905 35.1737C27.3498 35.1737 28.7893 33.6085 28.7893 31.6955C28.7893 29.7824 27.3498 28.2172 25.5905 28.2172Z" fill="black"/>
</svg>
