<svg width="24" height="24" viewBox="0 0 24 24" fill="none" xmlns="http://www.w3.org/2000/svg">
<path fill-rule="evenodd" clip-rule="evenodd" d="M19.8572 10.4031H12.169C12.169 11.2026 12.169 12.8017 12.1641 13.6013H16.6192C16.4485 14.4008 15.8432 15.5202 14.988 16.0839C14.9872 16.0831 14.9864 16.0887 14.9847 16.0879C13.8477 16.8387 12.3471 17.009 11.2329 16.7851C9.4865 16.4381 8.10439 15.1716 7.54322 13.5629C7.54649 13.5605 7.54894 13.5381 7.55139 13.5365C7.20014 12.5387 7.20014 11.2026 7.55139 10.4031H7.55057C8.0031 8.93352 9.42687 7.59267 11.1757 7.22568C12.5824 6.92745 14.1695 7.25047 15.3368 8.34265C15.492 8.19074 17.4851 6.24463 17.6346 6.08632C13.6467 2.47476 7.2614 3.74524 4.87212 8.40901H4.8713C4.8713 8.40901 4.87212 8.40901 4.86722 8.41781C3.68524 10.7085 3.73425 13.4078 4.87539 15.589C4.87212 15.5914 4.86967 15.593 4.86722 15.5954C5.90135 17.6022 7.78337 19.1414 10.0509 19.7274C12.4598 20.3591 15.5255 19.9273 17.579 18.07C17.5799 18.0708 17.5807 18.0716 17.5815 18.0724C19.3214 16.5053 20.4045 13.8356 19.8572 10.4031Z" fill="#0D0D0D"/>
</svg>
