<svg width="19" height="19" viewBox="0 0 19 19" fill="none" xmlns="http://www.w3.org/2000/svg">
<path d="M3.82111 8.22278C5.34111 11.21 7.79 13.6483 10.7772 15.1789L13.0994 12.8567C13.3844 12.5717 13.8067 12.4767 14.1761 12.6033C15.3583 12.9939 16.6356 13.205 17.9444 13.205C18.525 13.205 19 13.68 19 14.2606V17.9444C19 18.525 18.525 19 17.9444 19C8.03278 19 0 10.9672 0 1.05556C0 0.475 0.475 0 1.05556 0H4.75C5.33056 0 5.80556 0.475 5.80556 1.05556C5.80556 2.375 6.01667 3.64167 6.40722 4.82389C6.52333 5.19333 6.43889 5.605 6.14333 5.90056L3.82111 8.22278Z" fill="black"/>
</svg>
