<svg width="16" height="18" viewBox="0 0 16 18" fill="none" xmlns="http://www.w3.org/2000/svg">
<path fill-rule="evenodd" clip-rule="evenodd" d="M14.9143 17.3913C15.4613 17.3913 15.8485 16.9339 15.8485 16.3484C15.8485 16.0739 15.7643 15.8086 15.5792 15.6165L11.6149 11.2984C12.4482 10.1091 12.9448 8.63619 12.9448 7.0352C12.9448 3.16538 10.0326 0 6.47238 0C2.92057 0 0 3.15623 0 7.0352C0 10.905 2.91215 14.0704 6.47238 14.0704C7.87796 14.0704 9.17412 13.5764 10.2346 12.753L14.2241 17.0894C14.4093 17.2907 14.6533 17.3913 14.9143 17.3913ZM6.47238 12.5517C3.6949 12.5517 1.39716 10.0542 1.39716 7.0352C1.39716 4.01619 3.6949 1.51865 6.47238 1.51865C9.24987 1.51865 11.5476 4.01619 11.5476 7.0352C11.5476 10.0542 9.24987 12.5517 6.47238 12.5517Z" fill="black"/>
</svg>
